<?xml version="1.0" standalone="no"?>
<!DOCTYPE svg PUBLIC "-//W3C//DTD SVG 20010904//EN"
 "http://www.w3.org/TR/2001/REC-SVG-20010904/DTD/svg10.dtd">
<svg version="1.0" xmlns="http://www.w3.org/2000/svg"
 width="1555.000000pt" height="726.000000pt" viewBox="0 0 1555.000000 726.000000"
 preserveAspectRatio="xMidYMid meet">

<g transform="translate(0.000000,726.000000) scale(0.100000,-0.100000)"
fill="#000000" stroke="none">
<path d="M0 3630 l0 -3630 7775 0 7775 0 0 3630 0 3630 -7775 0 -7775 0 0
-3630z m3198 2910 c236 -26 479 -112 632 -227 l50 -37 0 -101 -1 -100 -57 -76
-57 -76 -80 64 c-150 120 -365 212 -551 235 -359 46 -702 -168 -774 -481 -18
-75 -16 -224 3 -298 28 -108 72 -180 166 -273 132 -132 270 -192 467 -206 233
-17 464 51 684 201 44 30 83 55 85 55 3 0 29 -33 60 -73 l55 -74 0 -85 0 -85
-39 -26 c-65 -43 -231 -123 -324 -156 -258 -91 -573 -104 -816 -35 -334 96
-591 342 -681 654 -31 107 -39 325 -15 441 36 179 117 330 250 463 234 234
561 336 943 296z m9083 -3540 c98 -27 149 -100 149 -211 0 -81 -28 -141 -86
-181 -77 -54 -216 -56 -295 -3 -121 80 -112 306 14 372 66 34 148 42 218 23z
m2464 -840 c273 -26 470 -148 579 -358 24 -48 55 -123 67 -167 23 -79 23 -89
27 -708 l3 -627 -175 0 -176 0 0 543 c0 304 -4 568 -10 602 -5 33 -25 92 -44
131 -85 171 -254 263 -481 264 -249 0 -480 -143 -580 -360 l-30 -65 -3 -557
-3 -558 -174 0 -175 0 0 915 0 915 175 0 175 0 0 -162 0 -162 78 77 c183 182
360 263 622 286 8 0 64 -4 125 -9z m-2365 -945 l0 -915 -175 0 -175 0 0 915 0
915 175 0 175 0 0 -915z"/>
</g>
</svg>
